<svg viewBox="0 0 885.983 158.313" xmlns="http://www.w3.org/2000/svg">
  <path color="inherit" fill="currentColor" d="M 779.294 155.684 L 808.774 155.684 L 808.774 107.988 L 849.911 155.684 L 885.983 155.684 L 838.093 100.715 L 879.002 53.052 L 846.177 53.052 L 808.774 96.982 L 808.774 0 L 779.294 3.864 L 779.294 155.684 Z M 711.306 50.423 C 678.578 50.423 655.851 72.436 655.851 104.352 C 655.851 136.268 678.578 158.281 711.306 158.281 C 744.033 158.281 766.761 136.268 766.761 104.352 C 766.761 72.436 744.033 50.423 711.306 50.423 Z M 711.306 133.151 C 696.143 133.151 685.754 121.43 685.754 104.352 C 685.754 87.274 696.143 75.553 711.306 75.553 C 726.468 75.553 736.858 87.274 736.858 104.352 C 736.858 121.43 726.468 133.151 711.306 133.151 Z M 591.499 50.423 C 558.772 50.423 536.044 72.436 536.044 104.352 C 536.044 136.268 558.772 158.281 591.499 158.281 C 624.227 158.281 646.954 136.268 646.954 104.352 C 646.954 72.436 624.227 50.423 591.499 50.423 Z M 591.499 133.151 C 576.337 133.151 565.947 121.43 565.947 104.352 C 565.947 87.274 576.337 75.553 591.499 75.553 C 606.662 75.553 617.051 87.274 617.051 104.352 C 617.051 121.43 606.662 133.151 591.499 133.151 Z M 478.673 50.423 C 465.037 50.423 453.738 55.78 446.66 65.585 L 446.66 0 L 417.147 3.831 L 417.147 155.651 L 443.316 155.651 L 443.835 139.807 C 450.816 151.625 463.316 158.281 478.673 158.281 C 506.661 158.281 527.148 135.553 527.148 104.352 C 527.148 73.15 506.758 50.423 478.673 50.423 Z M 471.693 133.151 C 456.53 133.151 446.141 121.43 446.141 104.352 C 446.141 87.274 456.53 75.553 471.693 75.553 C 486.855 75.553 497.245 87.274 497.245 104.352 C 497.245 121.43 486.855 133.151 471.693 133.151 Z M 358.055 134.482 C 342.406 134.482 331.172 127.209 327.341 114.677 L 399.971 114.677 C 400.686 110.846 401.173 106.3 401.173 103.248 C 401.173 70.228 382.698 50.423 351.659 50.423 C 320.328 50.423 298.639 72.436 298.639 104.352 C 298.639 136.69 321.367 158.281 355.101 158.281 C 372.568 158.281 389.549 152.437 400.166 142.729 L 389.549 124.028 C 379.257 131.138 369.159 134.482 358.055 134.482 Z M 351.464 73.345 C 365.101 73.345 373.802 81.624 373.802 94.449 L 373.802 94.547 L 326.724 94.547 C 329.549 80.943 338.347 73.345 351.464 73.345 Z M 252.47 158.313 C 267.73 158.313 282.665 152.469 293.184 142.339 L 281.658 122.956 C 273.476 129.32 264.191 132.761 255.392 132.761 C 239.028 132.761 228.119 121.332 228.119 104.384 C 228.119 87.436 239.028 76.007 255.392 76.007 C 263.476 76.007 272.275 78.929 279.418 84.092 L 291.139 64.286 C 281.658 55.715 266.983 50.455 252.437 50.455 C 220.424 50.455 197.794 72.793 197.794 104.384 C 197.826 135.878 220.456 158.313 252.47 158.313 Z M 158.735 53.052 L 158.216 69.027 C 151.235 57.111 138.735 50.455 123.378 50.455 C 95.293 50.455 74.903 73.183 74.903 104.384 C 74.903 135.586 95.423 158.313 123.378 158.313 C 138.735 158.313 151.267 151.657 158.216 139.839 L 158.735 155.683 L 184.904 155.683 L 184.904 53.052 L 158.735 53.052 Z M 130.358 133.151 C 115.196 133.151 104.806 121.43 104.806 104.352 C 104.806 87.274 115.196 75.553 130.358 75.553 C 145.521 75.553 155.91 87.274 155.91 104.352 C 155.91 121.43 145.488 133.151 130.358 133.151 Z M 72.695 53.245 L 46.169 53.245 L 46.169 44.478 C 46.169 31.361 51.299 26.329 64.611 26.329 C 68.734 26.329 72.078 26.426 73.994 26.621 L 73.994 4.121 C 70.357 3.114 61.494 2.108 56.364 2.108 C 29.253 2.108 16.753 14.9 16.753 42.53 L 16.753 53.212 L 0 53.212 L 0 78.018 L 16.753 78.018 L 16.753 155.649 L 46.201 155.649 L 46.201 78.05 L 68.15 78.05 L 72.695 53.245 Z" transform="matrix(0.9999999999999999, 0, 0, 0.9999999999999999, 0, -1.7763568394002505e-15)"/>
</svg>
